<?xml version="1.0" encoding="UTF-8"?>
<svg id="Layer_1" xmlns="http://www.w3.org/2000/svg" xmlns:xlink="http://www.w3.org/1999/xlink" version="1.1" viewBox="0 0 961.3 172.4">
  <!-- Generator: Adobe Illustrator 29.0.1, SVG Export Plug-In . SVG Version: 2.1.0 Build 192)  -->
  <defs>
    <style>
      .st0 {
        fill: #eaeaea;
      }

      .st1 {
        display: none;
        stroke: #000;
        stroke-linejoin: round;
        stroke-width: 4px;
      }

      .st2 {
        fill: url(#linear-gradient);
      }

      .st3 {
        fill: #fff;
      }
    </style>
    <linearGradient id="linear-gradient" x1="76.4" y1="166.9" x2="76.4" y2="10.1" gradientTransform="translate(0 174) scale(1 -1)" gradientUnits="userSpaceOnUse">
      <stop offset="0" stop-color="#f79533"/>
      <stop offset="1" stop-color="#f26846"/>
    </linearGradient>
  </defs>
  <rect class="st1" x="-21.7" width="1000" height="189.9"/>
  <path class="st3" d="M263.9,100.9c0,1.8-.5,3.5-1.5,5-1,1.5-2.2,2.7-3.8,3.4v1.8c1.5.8,2.8,1.9,3.8,3.4,1,1.5,1.5,3.1,1.5,5v10.2h0c-.1,2.4-1.1,4.5-2.9,6.2-1.8,1.7-3.9,2.5-6.4,2.5h-74v-46.4l-10-10h84c2.5,0,4.7.9,6.6,2.8,1.8,1.8,2.8,4,2.8,6.6v9.6h0ZM237.3,104.7v-11.3h-32.2v11.3h32.2ZM237.3,127v-11.4h-32.2v11.4h32.2Z"/>
  <path class="st3" d="M352.9,82c2.5,0,4.7.9,6.6,2.8,1.8,1.8,2.8,4,2.8,6.6v37.7c0,2.6-.9,4.7-2.8,6.6-1.8,1.8-4,2.8-6.6,2.8h-63.3c-2.6,0-4.8-.9-6.6-2.8s-2.7-4-2.7-6.6v-37l-10-10h82.7ZM337.6,124.3v-28.2h-32.9v28.2h32.9Z"/>
  <path class="st3" d="M455.5,82c2.5,0,4.7.9,6.6,2.8,1.8,1.8,2.8,4,2.8,6.6v37.7c0,2.6-.9,4.8-2.8,6.6-1.8,1.8-4,2.7-6.6,2.7h-76v-46.4l-10-10h86.1ZM438.9,124.3v-28.2h-34.9v28.2h34.9Z"/>
  <path class="st3" d="M528.2,82h28.7l-31.3,35.4v21h-24.5v-21l-31.4-35.4h28.7l14,19.5h1.8l14-19.5h0Z"/>
  <path class="st0" d="M681.5,95.5h-50v13.9h44.6v12.3h-44.6v16.6h-24.5v-46.4l-10-10h84.5v13.5h0Z"/>
  <path class="st0" d="M749.1,82h24.5v47.1c0,2.6-.9,4.7-2.8,6.6-1.8,1.8-4,2.8-6.6,2.8h-59.2c-2.6,0-4.8-.9-6.6-2.8s-2.7-4-2.7-6.6v-37l-10-10h34.5v42.3h28.9v-42.3h0Z"/>
  <path class="st0" d="M869,94.8h-53.4v9.2h50v12.3h-50v9.2h53.4v12.8h-77.9v-46.4l-10-10h87.9v12.8h0Z"/>
  <path class="st0" d="M909.8,124.3h45.2v14.1h-69.7v-46.4l-10-10h34.5v42.3h0Z"/>
  <g>
    <path class="st2" d="M58.8,161.6c-5.6-1.5-22.7-6.8-31.8-22.8-11.4-20.1-2.5-43.7-1-47.6,3.9-9.6,10.8-17.9,13.4-28,2.2-8.6,2.8-17.9.7-26.5,1.3-.2,1.9.2,2.8,1,4.8,4,12.4,18,12.4,24.2s.2,7.4,0,11c0,.2-1.8,3.6,0,2.8,12.7-16.1.2-36.7,6-54.7,2-6.4,7.3-11.3,13.3-13.9-2.9,8.1-2.6,14.2.2,22.3,6.5,19.3,27.2,29.4,26.8,51.5,1.1-.6,1.3-3.9,1.4-5.1,1-15.7-5.2-27.4,6.7-40.9.4-.5,0-1.3,1.6-.9-2.1,11.7,0,23.8,5.3,34.4,5.7,11.6,9,13.2,12,21.1,5.1,13.4,4.5,35.8-5.5,51.3-6.7,10.4-19.2,15.8-31.1,20.1-12.4,4.4-24.4,3-33.1.7h0Z"/>
    <path class="st3" d="M76.4,164.1c-4.7.2-8.8-.3-12.1-.9-2.8-.8-5.7-1.6-8.6-2.4.6-2.3,1.2-4.5,1.8-6.8,1.5,1.4,3.1,2.8,5.1,3.6.2,0,.5.4.6.1-1.9-1.4-3.5-3.2-4.6-5.3-1.9-9.1-4.3-18.2-4.6-27.6,0-.5.2-.9.2-1.4-.3,0-.3.4-.4.6-.5,1.2-.8,2.6-1,3.9,0,.3.1.3-.4.3-4.7-7.2-10-14.2-11.9-22.7.8-.4,2.4-2.4,3.2-2.5.4,0,1.3.2,1.7.3,3.6.9,6.3,3.3,8.2,6.5l1.9,3.5c-.9-4.5-2.3-9.2-6.5-11.6-1.1-.6-4.8-2.1-5.9-2-.5,0-.9.9-1.3,1.3-1.8,1.6-5.5,4.4-7.8,4.9-6.7,1.3-19.6-7.3-24.4-11.8-3.6-3.5-2.8-4.7-.7-8.8,5.3-10,13.9-17.1,22.3-24.3,1.5-.8,5.3-1,7-.9,1.5.1,4.1,1.3,5.6,1.9,1,.4,4.6,1.7,5.1,2.2.5.5.8,2.7.9,3.5.1,1,.4,2.4,0,3.3-.2.6-2.3,2.9-2.9,3.2-1,.4-4.3.3-5.3-.2-.7-.4-.9-1.4-1.3-1.8-1-.9-4.3-1-4-3.5-1.7-.4-2.8,1-3.8,2.1-.9.9-3.6,4.7-3.9,5.8-.2.8-.2,2.1-.3,3-.8,4.6-3.8,7-7.3,9.5,5.4-1.2,8.3-5.8,14.2-3.9,3.1,1,4.7,3.6,6.8,5.9.2-.3-.2-.8-.4-1.1-.5-.9-1.1-1.7-1.6-2.7,0-.3,1.3-.5,1.7-.6,5.6-1.4,11.3-1.4,15.9,2.5,1.2,1,2.1,2.4,3.3,3.5.3-.1,0-.4-.1-.6-.5-.9-1.1-1.7-1.6-2.5l7.7-2.6.6,3.7c.2,0,.4-.6.4-.6.2-2.1-.2-4.7,0-6.9,1.1.2,2,1.3,3.1,1.2-2.1-1.5-3.7-3.2-4.5-5.8-.1-.4-.5-2.5-.6-2.6-.3-.2-.9.2-1.4-.5-.5-.7-.4-2.5-.7-3.6-.4-1.4-1.6-2.6-.8-4.2l2-.2c0-3.1.4-6.2,1.8-9l.2-.2,3.2.7c-.9-.8-1.9-1-2.8-1.8-1.4-1.2-2.4-2.9-2.5-4.8l2.8,1.1c-.6-1.3-1.2-2.6-1.2-4,2,.9,4.1,1.8,6.3,2.3,3.6.9,8,.8,10.9,3.3,3.4,2.9,4.2,8.2,4.2,12.4,3.9-.4,1.7,2.5,1.2,4.4-.3,1.1-.2,2.8-.7,3.6-.5.7-1.1.3-1.4.5-.1,0-.5,2.2-.6,2.6-.8,2.6-2.4,4.2-4.5,5.8,1.1.1,2.1-1,3.1-1.2v6.7s.2.9.4.8l.6-3.7,7.7,2.6c-.5.9-1.1,1.7-1.6,2.6,0,.2-.5.4-.2.6,1.7-1.8,3.1-3.6,5.2-4.8,5-3,10.5-2.1,15.8-.7-.6.9-1.2,1.7-1.7,2.6-.2.3-.6.9-.4,1.2,2.1-2.3,3.7-4.8,6.8-5.9,6-2,8.9,2.7,14.2,3.9-2.8-2.2-5.8-4.2-6.9-7.9-.4-1.4-.3-3.7-.8-4.8-.4-1-2.3-3.6-3-4.5-.7-.9-2.5-3.1-3.6-3.2-1.5-.2-1,.4-1.5,1.3-.8,1.5-2.2,1.3-3.4,2.1-.7.5-.8,1.5-1.6,1.9-.9.5-4.3.6-5.2.2-.6-.2-2.8-2.6-3-3.2-.3-.9.3-6.1.8-6.8.4-.5,3.4-1.6,4.3-2,1.7-.7,4.9-2.1,6.6-2.3,1.7-.2,5.6,0,7,.9,8.3,7.2,16.8,14.1,22.1,24,1.1,2.1,2.7,4.4,1.6,6.8-1.2,2.4-7.9,7.2-10.3,8.8-3.6,2.3-11.2,6.2-15.5,5.7-1.7-.2-5.5-2.6-6.9-3.8-.5-.5-2.3-2.5-2.8-2.6-7.7.8-11.4,6.6-12.4,13.8l2.3-4.2c1.4-2.2,3-3.9,5.4-5,.9-.4,3.2-1.3,4.1-1.2.8,0,2.3,2.1,3.2,2.5-1.6,5.4-4.3,10.2-7.2,15-1.3,2.2-3.1,5.2-4.6,7.2-.1.2-.2.4-.4.4l-1.3-4.4-.2,5.4c-1.2,7.1-2.1,15.2-3.9,22.2-.7,2.5-3.2,4.9-5.1,6.5.1.3.4,0,.6-.1,2-.8,3.6-2.2,5.1-3.6.2,1.8.5,3.6.7,5.4-2.6,1-5.3,2.1-7.9,3.1-3.2.8-7.1,1.4-11.7,1.6h0ZM83.6,93.9c-2.2.9-4.4,2.5-6.9,2.6-2.5.1-4.7-1.3-6.9-2.2,1.4,1.4,3,2.6,4,4.3,2.2,3.9,2.1,12.7.9,17-.3,1.1-.8,2.1-1.1,3.2l1.1-1.5,1.7-3.6c.6,1.8,1.3,3.7,2.7,5.1-.2-1.2-.8-2.2-1.1-3.4-1-4-1.2-12.1.5-15.9,1.1-2.4,3.1-4,5.1-5.7h0ZM72,121.1c-5.3-.3-11.2-.7-15.2-4.6.9,3.5,2.2,7.1,4.7,9.7,0-.6-.4-1.1-.6-1.8-.2-.8-.3-2.1.6-2.5,1.3-.6,4.3-.2,5.9-.2.9,0,1.9-.4,2.9-.2l1.8-.4h0ZM91.3,126.2c2.6-2.6,3.9-6.2,4.8-9.7-4,3.9-9.9,4.3-15.2,4.6l1.8.4c2.2.3,4.5,0,6.6,0,.4,0,1.8.2,2.2.4,1.4.7.5,3.3,0,4.4ZM78.1,127.7v3.6c0,.4,1.3,1.4,1.8,1.5,1.8.8,3.9.7,5.8.3,1.1-.2,2.8-.6,3.7-1.4-3.7.5-8.7.9-10.7-3-.2-.4-.2-.9-.5-1.1h0ZM74.8,131.3v-3.4l-1.3,2.1c-2.3,2.5-6.9,2.2-9.9,1.7,0,.3.3.4.6.5,1.6.8,4.8,1.3,6.5,1.2,1.1,0,3.9-.9,4.1-2.1h0ZM74.8,143.9v-3.4c-2.8-3.3-7.7-2-11.2-.6,0,.5.7,0,.8,0h5c1.7,0,3.9,1.5,4.8,2.9.2.4.3.9.6,1.1h0ZM78.1,140.5v3.6l.8-1.5c.7-1.3,3.3-2.7,4.7-2.7h4.8c.1,0,.9.5,1,0-3.5-1.4-8.4-2.7-11.2.6h0Z"/>
  </g>
</svg>