<?xml version="1.0" encoding="UTF-8"?>
<svg id="Layer_1" data-name="Layer 1" xmlns="http://www.w3.org/2000/svg" xmlns:xlink="http://www.w3.org/1999/xlink" viewBox="0 0 961.33 172.35">
  <defs>
    <style>
      .cls-1 {
        filter: url(#drop-shadow-1);
      }

      .cls-2 {
        fill: url(#linear-gradient);
      }

      .cls-3 {
        fill: #101010;
      }

      .cls-4 {
        fill: #fff;
        stroke: #f26846;
        stroke-linejoin: round;
        stroke-width: .5px;
      }
    </style>
    <filter id="drop-shadow-1" x="-5.67" y="-5.64" width="170" height="188" filterUnits="userSpaceOnUse">
      <feOffset dx="3" dy="3"/>
      <feGaussianBlur result="blur" stdDeviation="5"/>
      <feFlood flood-color="#231f20" flood-opacity=".5"/>
      <feComposite in2="blur" operator="in"/>
      <feComposite in="SourceGraphic"/>
    </filter>
    <linearGradient id="linear-gradient" x1="76.42" y1="7.1" x2="76.42" y2="163.86" gradientUnits="userSpaceOnUse">
      <stop offset="0" stop-color="#f79533"/>
      <stop offset="1" stop-color="#f26846"/>
    </linearGradient>
  </defs>
  <path class="cls-3" d="M263.86,100.9c0,1.84-.49,3.51-1.47,5.02-.98,1.51-2.24,2.65-3.77,3.42v1.78c1.54.77,2.8,1.9,3.77,3.37.98,1.48,1.47,3.14,1.47,4.97v10.21h-.09c-.12,2.43-1.08,4.49-2.89,6.17-1.81,1.69-3.92,2.53-6.35,2.53h-73.98v-46.36l-10.04-10.04h84.01c2.54,0,4.74.92,6.57,2.75,1.83,1.84,2.75,4.03,2.75,6.57v9.59ZM237.3,104.72v-11.28h-32.24v11.28h32.24ZM237.3,127.01v-11.37h-32.24v11.37h32.24Z"/>
  <path class="cls-3" d="M352.85,81.99c2.54,0,4.74.92,6.57,2.75,1.83,1.84,2.75,4.03,2.75,6.57v37.74c0,2.55-.92,4.74-2.75,6.57-1.84,1.83-4.03,2.75-6.57,2.75h-63.32c-2.61,0-4.81-.92-6.62-2.75-1.81-1.83-2.71-4.03-2.71-6.57v-37.03l-10.04-10.04h82.68ZM337.57,124.26v-28.15h-32.86v28.15h32.86Z"/>
  <path class="cls-3" d="M455.51,81.99c2.54,0,4.74.92,6.57,2.75,1.83,1.84,2.75,4.03,2.75,6.57v37.74c0,2.61-.92,4.81-2.75,6.62-1.84,1.81-4.03,2.71-6.57,2.71l-76.02-.09v-46.27l-10.04-10.04h86.06ZM438.9,124.26v-28.15h-34.9v28.15h34.9Z"/>
  <path class="cls-3" d="M528.24,81.99h28.69l-31.35,35.44v20.96h-24.51v-20.96l-31.35-35.44h28.69l14.03,19.54h1.78l14.03-19.54Z"/>
  <path class="cls-3" d="M681.53,95.48h-50v13.94h44.58v12.34h-44.58v16.61h-24.51v-46.36l-10.04-10.04h84.55v13.5Z"/>
  <path class="cls-3" d="M749.11,81.99h24.51v47.07c0,2.55-.92,4.74-2.75,6.57-1.84,1.83-4.03,2.75-6.57,2.75h-59.24c-2.61,0-4.81-.92-6.62-2.75-1.81-1.83-2.71-4.03-2.71-6.57v-37.03l-10.04-10.04h34.55v42.27h28.86v-42.27Z"/>
  <path class="cls-3" d="M869.01,94.77h-53.38v9.24h50v12.34h-50v9.24h53.38v12.79h-77.89v-46.36l-10.04-10.04h87.92v12.79Z"/>
  <path class="cls-3" d="M909.77,124.26h45.2v14.12h-69.72v-46.36l-10.04-10.04h34.55v42.27Z"/>
  <g class="cls-1">
    <path class="cls-2" d="M58.78,161.65c-5.64-1.48-22.72-6.78-31.8-22.77-11.44-20.14-2.54-43.66-.96-47.59,3.85-9.6,10.79-17.87,13.39-28.01,2.2-8.56,2.85-17.87.74-26.51,1.28-.23,1.89.22,2.81.98,4.8,3.98,12.37,18.05,12.37,24.2,0,3.66.17,7.39,0,11.04,0,.16-1.78,3.63,0,2.77,12.69-16.11.23-36.7,6.01-54.71,2.04-6.35,7.35-11.31,13.29-13.95-2.89,8.08-2.56,14.22.16,22.27,6.53,19.31,27.15,29.39,26.76,51.55,1.14-.63,1.32-3.95,1.4-5.14,1.02-15.65-5.25-27.43,6.67-40.89.41-.46-.04-1.33,1.57-.88-2.13,11.68.06,23.82,5.26,34.41,5.68,11.56,9.02,13.15,12.01,21.1,5.05,13.4,4.51,35.85-5.46,51.35-6.67,10.37-19.18,15.8-31.13,20.08-12.43,4.45-24.45,3.04-33.12.69Z"/>
    <path class="cls-4" d="M76.44,163.6c-4.74.16-8.85-.28-12.1-.85-2.85-.81-5.71-1.62-8.56-2.43.58-2.26,1.17-4.52,1.75-6.79,1.53,1.42,3.12,2.81,5.08,3.63.17.07.47.4.61.12-1.87-1.44-3.47-3.22-4.62-5.27-1.9-9.03-4.33-18.16-4.57-27.47-.01-.5.18-.89.2-1.37-.32.05-.32.36-.42.59-.53,1.24-.76,2.58-1.05,3.89-.06.28.12.32-.36.27-4.66-7.12-10.02-14.1-11.89-22.6.85-.4,2.4-2.36,3.17-2.46.38-.05,1.27.2,1.69.31,3.62.93,6.34,3.31,8.2,6.47l1.94,3.46c-.86-4.45-2.33-9.14-6.49-11.55-1.06-.61-4.8-2.09-5.91-1.98-.54.05-.88.91-1.28,1.29-1.76,1.64-5.46,4.38-7.8,4.85-6.74,1.35-19.61-7.23-24.35-11.8-3.61-3.48-2.83-4.65-.67-8.72,5.3-9.98,13.9-17,22.31-24.24,1.47-.82,5.3-1.04,7.02-.89,1.5.13,4.14,1.3,5.64,1.88.97.37,4.57,1.67,5.11,2.23.51.52.78,2.69.88,3.51.12.97.41,2.41.07,3.31-.22.6-2.3,2.9-2.91,3.14-.96.38-4.35.31-5.29-.19-.74-.4-.88-1.37-1.27-1.76-.96-.95-4.29-.96-4-3.52-1.65-.38-2.85.99-3.85,2.09-.85.94-3.59,4.71-3.93,5.78-.24.75-.16,2.12-.31,2.99-.79,4.55-3.76,6.93-7.32,9.44,5.38-1.16,8.27-5.81,14.24-3.84,3.09,1.02,4.7,3.57,6.79,5.85.19-.29-.22-.83-.36-1.1-.47-.9-1.13-1.72-1.57-2.64.05-.26,1.33-.47,1.65-.56,5.62-1.43,11.28-1.44,15.88,2.48,1.22,1.04,2.09,2.43,3.31,3.47.27-.14-.04-.44-.13-.6-.49-.85-1.1-1.67-1.62-2.5l7.71-2.56.55,3.66c.2.07.36-.57.37-.64.25-2.13-.18-4.68,0-6.86,1.07.18,2.03,1.3,3.12,1.19-2.13-1.52-3.71-3.19-4.54-5.72-.14-.42-.52-2.5-.63-2.57-.28-.18-.95.16-1.42-.51-.52-.74-.39-2.5-.66-3.54-.37-1.4-1.58-2.62-.78-4.16l1.98-.23c.03-3.04.4-6.21,1.75-8.97l.17-.16,3.22.71c-.88-.77-1.91-1.04-2.85-1.82-1.4-1.16-2.45-2.89-2.47-4.76l2.75,1.09c-.55-1.26-1.25-2.6-1.19-4.02,2.03.94,4.12,1.77,6.3,2.33,3.61.93,7.97.78,10.88,3.25,3.4,2.89,4.16,8.13,4.22,12.35,3.92-.4,1.69,2.51,1.19,4.39-.28,1.05-.15,2.81-.66,3.54-.47.67-1.14.33-1.42.51-.12.07-.5,2.16-.63,2.57-.83,2.53-2.41,4.2-4.54,5.72,1.1.11,2.07-.98,3.12-1.19v6.68s.18.88.37.82l.55-3.66,7.71,2.56c-.46.89-1.12,1.65-1.58,2.54-.08.16-.47.39-.17.56,1.73-1.74,3.09-3.55,5.25-4.83,4.97-2.96,10.46-2.1,15.78-.65-.55.87-1.2,1.71-1.68,2.62-.17.31-.59.88-.43,1.22,2.09-2.29,3.7-4.83,6.79-5.85,5.97-1.98,8.86,2.67,14.24,3.84-2.84-2.14-5.85-4.23-6.93-7.82-.43-1.44-.34-3.66-.75-4.74-.37-.98-2.26-3.6-2.99-4.52-.67-.85-2.53-3.09-3.57-3.22-1.46-.18-1.02.42-1.49,1.27-.85,1.52-2.23,1.28-3.37,2.13-.67.5-.83,1.49-1.6,1.89-.89.46-4.27.58-5.16.25-.62-.23-2.8-2.58-3.03-3.2-.32-.86.31-6.05.85-6.73.42-.53,3.44-1.61,4.29-1.95,1.65-.66,4.94-2.1,6.56-2.25,1.72-.15,5.55.07,7.02.89,8.31,7.13,16.8,14.1,22.13,23.87,1.12,2.05,2.74,4.42,1.55,6.73-1.23,2.38-7.89,7.17-10.34,8.72-3.64,2.29-11.18,6.12-15.49,5.62-1.73-.2-5.5-2.59-6.87-3.76-.54-.46-2.32-2.51-2.76-2.56-7.67.84-11.44,6.57-12.39,13.72l2.31-4.19c1.45-2.19,3-3.87,5.43-5.02.87-.41,3.21-1.29,4.09-1.21.79.08,2.34,2.04,3.19,2.46-1.61,5.36-4.32,10.16-7.23,14.9-1.33,2.18-3.08,5.16-4.59,7.14-.11.15-.25.35-.44.38l-1.29-4.39-.19,5.39c-1.21,7.08-2.06,15.18-3.91,22.08-.66,2.46-3.17,4.86-5.09,6.45.14.27.44-.05.61-.12,1.96-.82,3.55-2.21,5.08-3.63.24,1.81.49,3.61.73,5.42-2.64,1.02-5.29,2.05-7.93,3.07-3.15.75-7.12,1.43-11.73,1.58ZM83.61,93.91c-2.17.95-4.43,2.46-6.88,2.58-2.53.12-4.66-1.32-6.89-2.21,1.38,1.44,2.99,2.58,4,4.35,2.25,3.92,2.05,12.7.94,17.03-.28,1.11-.79,2.13-1.09,3.23l1.13-1.53,1.71-3.61c.59,1.83,1.34,3.71,2.66,5.14-.25-1.17-.83-2.21-1.13-3.37-1-3.99-1.15-12.14.49-15.91,1.05-2.41,3.13-4.02,5.05-5.69ZM72.04,121.09c-5.35-.35-11.19-.65-15.24-4.59.87,3.52,2.17,7.05,4.68,9.73.02-.64-.44-1.14-.56-1.83-.15-.84-.29-2.09.6-2.54,1.27-.64,4.29-.17,5.85-.22.92-.02,1.94-.36,2.93-.19l1.75-.36ZM91.32,126.23c2.61-2.57,3.95-6.23,4.77-9.73-4.01,3.93-9.93,4.26-15.24,4.59l1.75.36c2.2.33,4.5-.03,6.6,0,.38,0,1.85.25,2.17.41,1.38.7.46,3.3-.05,4.37ZM78.1,127.7v3.58c0,.44,1.34,1.36,1.77,1.54,1.82.79,3.87.66,5.77.3,1.13-.21,2.82-.63,3.67-1.38-3.65.51-8.71.85-10.73-2.96-.19-.36-.16-.95-.48-1.08ZM74.79,131.28v-3.4l-1.28,2.12c-2.28,2.48-6.88,2.2-9.92,1.74.05.27.34.35.55.46,1.58.76,4.79,1.34,6.53,1.2,1.1-.09,3.86-.9,4.13-2.12ZM74.79,143.86v-3.4c-2.77-3.34-7.7-1.97-11.2-.64.02.48.72,0,.83,0h4.96c1.66,0,3.93,1.52,4.8,2.91.23.37.28.95.62,1.13ZM78.1,140.46v3.58l.77-1.53c.65-1.27,3.32-2.7,4.65-2.7h4.78c.12,0,.95.51,1.01,0-3.47-1.35-8.45-2.69-11.2.64Z"/>
  </g>
</svg>