<?xml version="1.0" encoding="UTF-8"?>
<svg id="Layer_2" data-name="Layer 2" xmlns="http://www.w3.org/2000/svg" xmlns:xlink="http://www.w3.org/1999/xlink" viewBox="0 0 647.33 726.67">
  <defs>
    <style>
      .cls-1 {
        filter: url(#drop-shadow-2);
      }

      .cls-2 {
        fill: url(#linear-gradient);
      }

      .cls-3 {
        fill: #fff;
        stroke: #f26846;
        stroke-linejoin: round;
        stroke-width: 1.5px;
      }
    </style>
    <filter id="drop-shadow-2" x="-4" y="-2.67" width="660" height="741" filterUnits="userSpaceOnUse">
      <feOffset dx="3" dy="3"/>
      <feGaussianBlur result="blur" stdDeviation="5"/>
      <feFlood flood-color="#231f20" flood-opacity=".5"/>
      <feComposite in2="blur" operator="in"/>
      <feComposite in="SourceGraphic"/>
    </filter>
    <linearGradient id="linear-gradient" x1="323" y1="9.66" x2="323" y2="718.87" gradientUnits="userSpaceOnUse">
      <stop offset="0" stop-color="#f79533"/>
      <stop offset="1" stop-color="#f26846"/>
    </linearGradient>
  </defs>
  <g class="cls-1">
    <path class="cls-2" d="M243.18,708.86c-25.53-6.71-102.79-30.68-143.89-103-51.78-91.11-11.48-197.54-4.34-215.32,17.44-43.41,48.81-80.84,60.59-126.71,9.94-38.73,12.88-80.86,3.35-119.92,5.77-1.03,8.56.99,12.71,4.43,21.71,18.01,55.96,81.67,55.96,109.48,0,16.56.76,33.43,0,49.94-.03.73-8.06,16.42.02,12.52,57.42-72.89,1.02-166.05,27.21-247.5,9.23-28.71,33.26-51.17,60.14-63.13-13.09,36.54-11.59,64.31.73,100.75,29.53,87.37,122.85,132.99,121.08,233.24,5.17-2.85,5.98-17.85,6.34-23.27,4.59-70.78-23.75-124.12,30.2-184.98,1.85-2.09-.18-6.01,7.12-3.98-9.62,52.82.28,107.77,23.8,155.68,25.68,52.31,40.81,59.5,54.36,95.48,22.83,60.63,20.42,162.22-24.7,232.32-30.2,46.91-86.78,71.46-140.85,90.84-56.22,20.15-110.61,13.75-149.84,3.12Z"/>
    <path class="cls-3" d="M323.08,718.73c-21.45.71-40.04-1.28-54.75-3.87-12.91-3.68-25.82-7.35-38.73-11.03,2.64-10.25,5.29-20.51,7.93-30.76,6.92,6.44,14.13,12.72,22.98,16.44.76.32,2.12,1.8,2.77.56-8.44-6.55-15.7-14.6-20.92-23.9-8.59-40.94-19.6-82.33-20.69-124.52-.06-2.28.8-4.05.89-6.22-1.44.23-1.44,1.65-1.88,2.67-2.41,5.63-3.42,11.72-4.77,17.64-.29,1.28.56,1.45-1.63,1.23-21.09-32.28-45.34-63.91-53.78-102.44,3.82-1.81,10.87-10.71,14.36-11.15,1.73-.22,5.73.93,7.65,1.42,16.36,4.22,28.67,14.99,37.09,29.32l8.78,15.68c-3.89-20.16-10.55-41.46-29.35-52.37-4.8-2.79-21.71-9.46-26.72-8.98-2.46.24-3.96,4.14-5.79,5.84-7.96,7.42-24.7,19.86-35.3,21.98-30.5,6.1-88.71-32.77-110.17-53.51-16.32-15.76-12.81-21.09-3.03-39.55,23.97-45.23,62.87-77.08,100.94-109.88,6.66-3.71,23.99-4.7,31.76-4.02,6.77.6,18.71,5.9,25.52,8.53,4.39,1.69,20.66,7.58,23.11,10.1,2.29,2.36,3.53,12.21,3.98,15.93.54,4.4,1.83,10.93.3,14.99-1.02,2.7-10.41,13.15-13.14,14.25-4.33,1.73-19.68,1.42-23.91-.85-3.36-1.8-3.98-6.23-5.73-7.97-4.33-4.31-19.39-4.34-18.09-15.94-7.46-1.73-12.91,4.47-17.44,9.48-3.86,4.27-16.24,21.36-17.8,26.18-1.1,3.41-.71,9.6-1.39,13.54-3.56,20.62-17.01,31.43-33.14,42.79,24.33-5.27,37.42-26.36,64.41-17.41,13.99,4.64,21.28,16.17,30.74,26.54.85-1.32-1-3.74-1.65-4.99-2.13-4.08-5.12-7.79-7.08-11.99.24-1.19,6-2.14,7.47-2.52,25.44-6.48,51.04-6.51,71.86,11.23,5.52,4.71,9.46,11,14.99,15.72,1.23-.63-.17-2-.59-2.73-2.2-3.88-4.99-7.55-7.31-11.35l34.89-11.62,2.51,16.58c.88.31,1.62-2.57,1.65-2.9,1.11-9.66-.82-21.22,0-31.09,4.84.81,9.2,5.88,14.12,5.39-9.63-6.91-16.79-14.45-20.53-25.94-.61-1.88-2.34-11.33-2.86-11.66-1.26-.81-4.28.74-6.41-2.3-2.35-3.35-1.76-11.33-3.01-16.07-1.68-6.36-7.15-11.86-3.55-18.87l8.95-1.02c.14-13.76,1.8-28.14,7.91-40.64l.79-.71,14.56,3.2c-3.99-3.51-8.64-4.73-12.9-8.26-6.33-5.25-11.08-13.12-11.19-21.57l12.46,4.96c-2.47-5.73-5.66-11.8-5.39-18.24,9.19,4.26,18.64,8.02,28.48,10.55,16.34,4.2,36.08,3.53,49.21,14.74,15.38,13.12,18.8,36.86,19.1,55.98,17.72-1.81,7.65,11.38,5.4,19.89-1.25,4.74-.66,12.73-3.01,16.07-2.13,3.04-5.15,1.49-6.41,2.3-.52.34-2.25,9.78-2.86,11.66-3.75,11.49-10.91,19.03-20.53,25.94,4.98.5,9.38-4.43,14.12-5.39v30.26c0,.2.81,3.97,1.65,3.73l2.51-16.58,34.89,11.62c-2.08,4.02-5.05,7.5-7.14,11.52-.37.71-2.13,1.75-.76,2.56,7.85-7.9,13.98-16.07,23.75-21.9,22.47-13.4,47.33-9.51,71.39-2.96-2.5,3.94-5.42,7.74-7.62,11.87-.75,1.4-2.68,3.98-1.94,5.53,9.46-10.36,16.74-21.9,30.74-26.54,27.03-8.96,40.09,12.12,64.41,17.41-12.87-9.72-26.46-19.15-31.34-35.47-1.95-6.53-1.52-16.58-3.38-21.51-1.68-4.45-10.23-16.33-13.51-20.51-3.04-3.87-11.45-14.02-16.14-14.59-6.63-.8-4.6,1.89-6.76,5.76-3.84,6.91-10.09,5.82-15.24,9.67-3.04,2.27-3.75,6.75-7.22,8.55-4.01,2.09-19.3,2.64-23.35,1.12-2.79-1.05-12.65-11.7-13.71-14.51-1.46-3.88,1.38-27.42,3.85-30.52,1.92-2.41,15.58-7.3,19.39-8.84,7.44-3.01,22.34-9.54,29.68-10.19,7.78-.68,25.11.31,31.76,4.02,37.61,32.31,76.02,63.9,100.11,108.22,5.06,9.3,12.4,20.03,7.03,30.51-5.54,10.81-35.68,32.5-46.8,39.53-16.46,10.4-50.57,27.75-70.09,25.5-7.83-.9-24.88-11.75-31.1-17.07-2.46-2.1-10.48-11.38-12.5-11.59-34.68,3.8-51.75,29.78-56.07,62.18l10.45-19c6.57-9.94,13.59-17.53,24.55-22.77,3.93-1.88,14.52-5.87,18.52-5.48,3.56.34,10.61,9.23,14.42,11.15-7.29,24.29-19.56,46.07-32.7,67.54-6.03,9.87-13.92,23.41-20.76,32.35-.51.66-1.14,1.6-2.01,1.72l-5.82-19.89-.85,24.45c-5.49,32.08-9.33,68.81-17.67,100.11-2.97,11.16-14.34,22.05-23.04,29.25.65,1.25,2-.24,2.77-.56,8.85-3.72,16.06-10,22.98-16.44,1.11,8.19,2.22,16.38,3.32,24.57-11.96,4.64-23.92,9.28-35.88,13.92-14.24,3.42-32.2,6.48-53.05,7.17ZM355.51,401.95c-9.82,4.31-20.05,11.09-31.13,11.63-11.46.56-21.07-5.96-31.19-9.97,6.25,6.5,13.51,11.64,18.11,19.64,10.19,17.71,9.26,57.32,4.26,76.88-1.28,5-3.59,9.61-4.92,14.57l5.12-6.91,7.74-16.32c2.66,8.25,6.07,16.74,12.05,23.22-1.12-5.29-3.77-9.96-5.09-15.23-4.5-17.99-5.21-54.82,2.2-71.82,4.74-10.88,14.17-18.15,22.84-25.71ZM303.16,524.66c-24.2-1.56-50.61-2.95-68.96-20.74,3.95,15.88,9.82,31.83,21.18,43.94.08-2.88-2-5.14-2.54-8.24-.66-3.79-1.32-9.44,2.71-11.48,5.75-2.9,19.43-.78,26.45-.97,4.14-.11,8.79-1.6,13.25-.87l7.9-1.64ZM390.42,547.87c11.79-11.59,17.86-28.11,21.59-43.94-18.15,17.74-44.94,19.23-68.96,20.74l7.9,1.64c9.94,1.48,20.37-.14,29.86-.02,1.74.02,8.38,1.13,9.83,1.86,6.25,3.16,2.1,14.88-.23,19.72ZM330.58,554.5v16.17c0,1.98,6.07,6.12,7.99,6.95,8.24,3.59,17.51,2.99,26.11,1.37,5.13-.97,12.76-2.85,16.59-6.24-16.5,2.3-39.42,3.86-48.53-13.35-.86-1.63-.72-4.3-2.16-4.89ZM315.62,570.67v-15.34l-5.79,9.56c-10.32,11.18-31.11,9.93-44.89,7.86.21,1.24,1.53,1.6,2.49,2.06,7.16,3.44,21.66,6.03,29.53,5.42,4.99-.39,17.47-4.04,18.67-9.56ZM315.62,627.46v-15.34c-12.53-15.09-34.86-8.88-50.68-2.89.1,2.18,3.26-.01,3.73-.01h22.44c7.52,0,17.79,6.84,21.72,13.15,1.06,1.69,1.28,4.27,2.79,5.1ZM330.58,612.12v16.17l3.48-6.9c2.92-5.72,15.02-12.17,21.04-12.17h21.6c.53,0,4.3,2.3,4.56.01-15.71-6.08-38.22-12.13-50.68,2.89Z"/>
  </g>
</svg>